<svg width="32" height="32" viewBox="0 0 32 32" fill="none" xmlns="http://www.w3.org/2000/svg">
<g id="3D Render">
<g id="Group">
<path id="Vector" d="M16.5 22C16.8978 22 17.2794 21.8946 17.5607 21.7071C17.842 21.5196 18 21.2652 18 21C18 20.7348 17.842 20.4804 17.5607 20.2929C17.2794 20.1054 16.8978 20 16.5 20C16.1022 20 15.7206 20.1054 15.4393 20.2929C15.158 20.4804 15 20.7348 15 21C15 21.2652 15.158 21.5196 15.4393 21.7071C15.7206 21.8946 16.1022 22 16.5 22Z" fill="#0449AB" stroke="#0449AB" stroke-width="1.5" stroke-linecap="round" stroke-linejoin="round"/>
<path id="Vector_2" d="M27 11.1092V21.8908C27.0001 22.0151 26.9667 22.1371 26.9033 22.2442C26.8399 22.3513 26.7488 22.4396 26.6395 22.4998L16.8395 27.9127C16.7356 27.9699 16.6188 28 16.5 28C16.3812 28 16.2644 27.9699 16.1605 27.9127L6.3605 22.4998C6.2512 22.4396 6.16013 22.3513 6.09673 22.2442C6.03334 22.1371 5.99994 22.0151 6 21.8908V11.1092C6.00015 10.9851 6.03365 10.8634 6.09703 10.7565C6.16041 10.6496 6.25138 10.5615 6.3605 10.5013L16.1605 5.08734C16.2644 5.03006 16.3812 5 16.5 5C16.6188 5 16.7356 5.03006 16.8395 5.08734L26.6395 10.5013C26.7486 10.5615 26.8396 10.6496 26.903 10.7565C26.9664 10.8634 26.9999 10.9851 27 11.1092V11.1092Z" stroke="#0449AB" stroke-width="1.5" stroke-linecap="round" stroke-linejoin="round"/>
<path id="Vector_3" d="M16.5 25.1053V28M26 21.8886L16.8252 16.6086C16.7257 16.5515 16.6138 16.5215 16.5 16.5215C16.3862 16.5215 16.2743 16.5515 16.1748 16.6086L7 21.8886H26ZM7.03129 10.972L16.1736 16.2335C16.2733 16.2909 16.3854 16.321 16.4994 16.321C16.6135 16.321 16.7256 16.2909 16.8252 16.2335L26 10.9535L7.03129 10.972ZM16.5 6V16.4211V6Z" stroke="#0449AB" stroke-width="1.5" stroke-linecap="round" stroke-linejoin="round"/>
</g>
</g>
</svg>
