<svg width="32" height="32" viewBox="0 0 32 32" fill="none" xmlns="http://www.w3.org/2000/svg">
<g id="BP">
<path id="Vector" d="M28.2166 7.90561L17.0038 1.22432L16.9876 1.21557L17.0848 1.15932H16.878C16.6441 1.046 16.3862 0.991668 16.1266 1.00103C15.8671 1.0104 15.6137 1.08318 15.3885 1.21307L14.5179 1.71682L3.80207 7.90936C3.5584 8.05011 3.35598 8.25281 3.21517 8.49705C3.07437 8.74128 3.00015 9.01844 3 9.30061V22.6982C3 23.2732 3.30514 23.8032 3.80207 24.0895L15.3897 30.7857C15.8904 31.0757 16.5081 31.0707 17.0051 30.7745L28.2166 24.0932C28.7023 23.8044 29 23.2794 29 22.7119V9.28561C29 8.71936 28.7023 8.19436 28.2166 7.90561ZM4.20186 8.60436L15.8045 1.89932C15.9264 1.83254 16.0636 1.7988 16.2025 1.80143C16.3414 1.80407 16.4772 1.84297 16.5966 1.91432L27.8081 8.59561C27.9123 8.65922 28.0005 8.74604 28.0659 8.84936L22.4078 12.0431L16.8058 8.66811C16.6243 8.55862 16.4171 8.49933 16.2054 8.49626C15.9936 8.49318 15.7848 8.54644 15.6002 8.65061L9.56103 12.0606L3.90295 8.91186C3.97299 8.78408 4.07631 8.67779 4.20186 8.60436ZM21.8001 18.9707L16.2005 15.8557V9.30186C16.2686 9.30375 16.3351 9.32312 16.3936 9.35811L21.8001 12.6144V18.9707ZM15.868 16.5882L21.7116 19.8394L16.193 23.1632L10.4042 19.8944C10.3453 19.8609 10.296 19.8127 10.261 19.7544L15.868 16.5882ZM15.7883 30.0907L4.20061 23.3944C4.07873 23.324 3.97749 23.2225 3.90709 23.1003C3.83669 22.9781 3.79961 22.8394 3.79958 22.6982V9.77312L9.39912 12.8881V19.5432C9.39912 19.9782 9.63326 20.3794 10.0106 20.5932L16.0025 23.9757L16.198 24.0857V30.1945C16.0546 30.1977 15.913 30.1619 15.7883 30.0907Z" fill="#0449AB"/>
</g>
</svg>
