<svg width="32" height="32" viewBox="0 0 32 32" fill="none" xmlns="http://www.w3.org/2000/svg">
<g id="House Remodel">
<g id="Group">
<path id="Vector" fill-rule="evenodd" clip-rule="evenodd" d="M3 26.9047C3 26.6143 3.07486 26.3357 3.20811 26.1303C3.34136 25.9249 3.52208 25.8095 3.71053 25.8095H29.2895C29.4779 25.8095 29.6586 25.9249 29.7919 26.1303C29.9251 26.3357 30 26.6143 30 26.9047C30 27.1952 29.9251 27.4738 29.7919 27.6792C29.6586 27.8846 29.4779 28 29.2895 28H3.71053C3.52208 28 3.34136 27.8846 3.20811 27.6792C3.07486 27.4738 3 27.1952 3 26.9047Z" fill="#0449AB"/>
<path id="Vector_2" fill-rule="evenodd" clip-rule="evenodd" d="M8.70852 15.81V26.3571H25.3714V15.81L17.0399 10.1775L8.70852 15.8108V15.81ZM7.31995 14.8571V28H26.7599V14.8571L17.0399 8.28571L7.31995 14.8571Z" fill="#0449AB"/>
<path id="Vector_3" d="M19.56 16.7738H23.88V25.8095H19.56V16.7738ZM9.47998 16.7738H17.4V21.7024H9.47998V16.7738ZM22.44 8.41V6.09521H24.6V10.2024L22.44 8.41Z" fill="#0449AB"/>
<path id="Vector_4" fill-rule="evenodd" clip-rule="evenodd" d="M22.4399 5.93876C22.4399 5.68978 22.5082 5.45101 22.6297 5.27496C22.7513 5.0989 22.9161 5 23.0879 5H25.0319C25.2038 5 25.3686 5.0989 25.4901 5.27496C25.6117 5.45101 25.6799 5.68978 25.6799 5.93876V10.6325C25.68 10.8057 25.6469 10.9755 25.5845 11.1231C25.522 11.2708 25.4326 11.3905 25.3261 11.4691C25.2196 11.5477 25.1002 11.5821 24.981 11.5685C24.8618 11.5549 24.7476 11.4938 24.6509 11.392L22.7069 9.34363C22.6242 9.25653 22.5569 9.14232 22.5105 9.01032C22.4641 8.87833 22.4399 8.7323 22.4399 8.58417V5.93876ZM23.7359 6.87751V8.10635L24.3839 8.78882V6.87751H23.7359Z" fill="#0449AB"/>
<path id="Vector_5" fill-rule="evenodd" clip-rule="evenodd" d="M16.6822 5.11001C16.7907 5.03798 16.9142 5 17.04 5C17.1657 5 17.2892 5.03798 17.3977 5.11001L30 13.4826L29.2845 14.8563L17.04 6.72125L4.79537 14.8571L4.07996 13.4834L16.6822 5.11081V5.11001Z" fill="#0449AB"/>
</g>
</g>
</svg>
