<svg xmlns="http://www.w3.org/2000/svg" width="165" height="38" viewBox="0 0 165 38" fill="none">
  <path d="M41.3019 23.807V3.55887H38.6342V23.807H41.3019Z" fill="#464C4E"/>
  <path d="M49.7635 23.807V7.91391L60.3222 23.807H63.0461V3.55887H60.4907V19.4519L49.932 3.55887H47.2081V23.807H49.7635Z" fill="#464C4E"/>
  <path d="M77.0218 23.807L84.8846 3.55887H82.1607L76.7409 18.2642C76.3197 19.3954 75.9547 20.4983 75.6458 21.5729C75.1122 19.5651 74.7191 18.5753 74.6067 18.2642L69.3836 3.55887H66.4911L74.2698 23.807H77.0218Z" fill="#464C4E"/>
  <path d="M91.4836 23.807V3.55887H88.8158V23.807H91.4836Z" fill="#464C4E"/>
  <path d="M111.824 9.27133C111.655 5.53843 108.903 3.21951 104.27 3.21951C99.889 3.21951 97.2493 5.59499 97.2493 8.79058C97.2493 11.1943 98.9061 13.0608 101.377 13.7678C103.006 14.2485 104.691 14.6727 106.292 15.0686C108.65 15.6342 109.886 16.7088 109.886 18.1794C109.886 20.3569 108.005 21.7426 104.888 21.7426C103.175 21.7426 101.686 21.2901 100.591 20.4134C99.4678 19.5085 99.1308 18.4904 98.9623 17.0765L96.435 17.3027C96.5192 21.3467 99.4678 24.1463 104.972 24.1463C109.689 24.1463 112.413 21.3467 112.413 18.0945C112.413 15.2666 110.363 13.2305 107.387 12.5517C105.505 12.0993 103.596 11.6185 101.714 11.0529C100.479 10.6853 99.7767 9.80864 99.7767 8.6209C99.7767 6.78273 101.462 5.62327 104.382 5.62327C107.499 5.62327 108.987 6.86757 109.268 9.441L111.824 9.27133Z" fill="#464C4E"/>
  <path d="M120.276 23.807V3.55887H117.608V23.807H120.276Z" fill="#464C4E"/>
  <path d="M125.284 13.9374C125.284 19.5651 129.047 24.1463 135.028 24.1463C140.363 24.1463 144.519 20.0741 144.519 13.7112C144.519 7.40488 140.7 3.21951 134.551 3.21951C129.355 3.21951 125.284 7.26348 125.284 13.9374ZM128.036 13.994C128.036 8.45122 130.703 5.51015 135.028 5.51015C138.791 5.51015 141.768 8.45122 141.768 13.7112C141.768 18.8015 138.987 21.8557 134.887 21.8557C130.844 21.8557 128.036 18.7167 128.036 13.994Z" fill="#464C4E"/>
  <path d="M151.717 23.807V7.91391L162.276 23.807H165V3.55887H162.445V19.4519L151.886 3.55887H149.162V23.807H151.717Z" fill="#464C4E"/>
  <path d="M40.2439 33.7005H42.5279C43.2261 33.7005 44.0276 33.5699 44.5447 33.0391C45.036 32.5345 45.3808 31.7513 45.3808 30.5854C45.3808 29.3672 45.036 28.7581 44.743 28.3665C44.0793 27.4877 43.2002 27.4703 42.4417 27.4703H40.2439V33.7005ZM41.2609 28.3491H42.209C42.8382 28.3491 43.3295 28.3491 43.726 28.6972C44.2345 29.1496 44.3293 29.9066 44.3293 30.5419C44.3293 32.7955 43.2347 32.8216 42.3986 32.8216H41.2609V28.3491Z" fill="#5E6668"/>
  <path d="M46.7835 33.7005H51.4291V32.8216H47.8005V30.8899H51.0671V30.0111H47.8005V28.3491H51.2998V27.4703H46.7835V33.7005Z" fill="#5E6668"/>
  <path d="M52.5754 31.6904C52.6443 32.6302 53.2045 33.8049 55.1179 33.8049C57.0227 33.8049 57.5398 32.7172 57.5398 31.8993C57.5398 30.4722 56.1953 30.1677 55.2214 29.9415C54.1526 29.6978 53.782 29.5064 53.782 29.0365C53.782 28.4796 54.4112 28.2447 55.0317 28.2447C56.2212 28.2447 56.316 29.0104 56.3504 29.3063L57.3589 29.2453C57.3071 27.9314 56.2901 27.3658 55.0059 27.3658C53.5234 27.3658 52.8081 28.1925 52.8081 29.0974C52.8081 30.4113 54.1354 30.7333 55.0231 30.9508C55.9453 31.1771 56.5314 31.3337 56.5314 31.9602C56.5314 32.5693 55.9453 32.926 55.1352 32.926C54.9628 32.926 54.2216 32.8999 53.8165 32.3343C53.6182 32.0559 53.5751 31.7426 53.5579 31.6034L52.5754 31.6904Z" fill="#5E6668"/>
  <path d="M59.0222 33.7005H60.0393V27.4703H59.0222V33.7005Z" fill="#5E6668"/>
  <path d="M64.6094 31.3337H66.2384V32.3169C66.0574 32.5084 65.3938 32.926 64.5922 32.926C63.1356 32.926 62.5668 31.8471 62.5668 30.4983C62.5668 29.6369 62.9374 28.2447 64.5836 28.2447C65.1783 28.2447 65.9281 28.4535 66.1953 29.4194L67.1693 29.2018C66.8848 27.9749 66.0143 27.3658 64.5836 27.3658C62.1789 27.3658 61.5239 29.2801 61.5239 30.5941C61.5239 32.4475 62.6788 33.8049 64.6353 33.8049C65.592 33.8049 66.5228 33.4568 67.2554 32.839V30.4548H64.6094V31.3337Z" fill="#5E6668"/>
  <path d="M68.8263 33.7005H69.7657V29.5586C69.7657 29.4281 69.7399 29.1931 69.7312 29.1148L69.7485 29.0974C69.7743 29.167 69.8002 29.2279 69.8691 29.3324L72.6703 33.7005H73.6873V27.4703H72.7479V31.412C72.7479 31.7339 72.7651 32.0472 72.7737 32.1255L72.7565 32.1429C72.6272 31.8645 72.5927 31.8297 72.4203 31.5512L69.8347 27.4703H68.8263V33.7005Z" fill="#5E6668"/>
  <path d="M77.7047 31.9254H80.0232V30.9595H77.7047V31.9254Z" fill="#5E6668"/>
  <path d="M84.0256 33.7005H86.2579C86.5855 33.7005 87.4473 33.7005 87.9128 33.5003C88.4989 33.248 88.9212 32.6389 88.9212 31.8993C88.9212 31.5425 88.8091 30.6985 87.7576 30.3852C88.6195 29.9676 88.6195 29.1757 88.6195 29.0539C88.6195 28.5144 88.3265 28.001 87.8611 27.74C87.5594 27.566 87.1974 27.4703 86.4045 27.4703H84.0256V33.7005ZM85.0427 30.8986H86.2666C86.8957 30.8986 87.8697 30.8986 87.8697 31.8645C87.8697 32.8216 86.9647 32.8216 86.3958 32.8216H85.0427V30.8986ZM85.0427 28.3491H86.0338C86.7147 28.3491 87.1629 28.3491 87.387 28.5753C87.5508 28.7407 87.6283 28.9669 87.6283 29.1844C87.6283 30.0198 86.8182 30.0198 86.1373 30.0198H85.0427V28.3491Z" fill="#5E6668"/>
  <path d="M90.0771 27.4703V30.9421C90.0771 32.0994 90.0943 33.8049 92.5248 33.8049C94.9554 33.8049 94.9554 32.082 94.9554 30.916V27.4703H93.9383V31.0117C93.9383 31.9863 93.9039 32.926 92.5162 32.926C91.0941 32.926 91.0941 31.8645 91.0941 30.9769V27.4703H90.0771Z" fill="#5E6668"/>
  <path d="M96.6684 33.7005H97.6854V27.4703H96.6684V33.7005Z" fill="#5E6668"/>
  <path d="M99.3855 33.7005H103.471V32.8216H100.403V27.4703H99.3855V33.7005Z" fill="#5E6668"/>
  <path d="M104.755 33.7005H107.039C107.737 33.7005 108.539 33.5699 109.056 33.0391C109.547 32.5345 109.892 31.7513 109.892 30.5854C109.892 29.3672 109.547 28.7581 109.254 28.3665C108.591 27.4877 107.711 27.4703 106.953 27.4703H104.755V33.7005ZM105.772 28.3491H106.72C107.349 28.3491 107.841 28.3491 108.237 28.6972C108.746 29.1496 108.84 29.9066 108.84 30.5419C108.84 32.7955 107.746 32.8216 106.91 32.8216H105.772V28.3491Z" fill="#5E6668"/>
  <path d="M113.642 31.9254H115.961V30.9595H113.642V31.9254Z" fill="#5E6668"/>
  <path d="M119.963 33.7005H120.98V31.0117H121.601C122.385 31.0117 122.549 31.1509 123.35 32.3778L124.212 33.7005H125.453L124.531 32.2299C123.928 31.2641 123.574 31.0726 123.264 30.916V30.8986C123.574 30.8638 124.953 30.655 124.953 29.1931C124.953 28.5579 124.635 27.8879 123.962 27.6356C123.523 27.4703 123.135 27.4703 122.644 27.4703H119.963V33.7005ZM120.98 28.3491H122.471C122.954 28.3491 123.902 28.3491 123.902 29.254C123.902 30.1329 123.049 30.1677 122.351 30.1677H120.98V28.3491Z" fill="#5E6668"/>
  <path d="M126.503 33.7005H131.148V32.8216H127.52V30.8899H130.786V30.0111H127.52V28.3491H131.019V27.4703H126.503V33.7005Z" fill="#5E6668"/>
  <path d="M137.19 27.4703L135.699 32.3517H135.682L134.217 27.4703H132.553V33.7005H133.536V28.2447H133.553L135.191 33.7005H136.139L137.776 28.2447H137.793V33.7005H138.776V27.4703H137.19Z" fill="#5E6668"/>
  <path d="M140.14 30.568C140.14 32.4475 141.234 33.8049 143.096 33.8049C145.018 33.8049 146.078 32.4388 146.078 30.5854C146.078 28.7581 145.018 27.3658 143.113 27.3658C141.036 27.3658 140.14 28.9408 140.14 30.568ZM141.191 30.5854C141.191 28.8277 142.174 28.2447 143.113 28.2447C144.329 28.2447 145.027 29.1583 145.027 30.568C145.027 31.3424 144.846 31.7687 144.708 32.0211C144.449 32.4823 143.915 32.926 143.113 32.926C142.157 32.926 141.191 32.2821 141.191 30.5854Z" fill="#5E6668"/>
  <path d="M147.477 33.7005H149.761C150.459 33.7005 151.26 33.5699 151.778 33.0391C152.269 32.5345 152.614 31.7513 152.614 30.5854C152.614 29.3672 152.269 28.7581 151.976 28.3665C151.312 27.4877 150.433 27.4703 149.674 27.4703H147.477V33.7005ZM148.494 28.3491H149.442C150.071 28.3491 150.562 28.3491 150.959 28.6972C151.467 29.1496 151.562 29.9066 151.562 30.5419C151.562 32.7955 150.467 32.8216 149.631 32.8216H148.494V28.3491Z" fill="#5E6668"/>
  <path d="M154.016 33.7005H158.662V32.8216H155.033V30.8899H158.3V30.0111H155.033V28.3491H158.533V27.4703H154.016V33.7005Z" fill="#5E6668"/>
  <path d="M160.11 33.7005H164.195V32.8216H161.127V27.4703H160.11V33.7005Z" fill="#5E6668"/>
  <rect width="31.3902" height="37.0244" fill="#0449AB"/>
  <rect x="0.5" y="0.5" width="3.82927" height="3.82927" fill="#0449AB" stroke="white"/>
  <path d="M4.02438 33.9916H8.58643V14.0693C8.58643 13.4415 8.46087 12.3114 8.41902 11.9347L8.50273 11.851C8.62829 12.1858 8.75385 12.4788 9.08868 12.9811L22.6911 33.9916H27.6298V4.02438H23.0678V22.9841C23.0678 24.5327 23.1515 26.0394 23.1934 26.4161L23.1097 26.4998C22.4818 25.1605 22.3144 24.9931 21.4774 23.6537L8.92126 4.02438H4.02438V33.9916Z" fill="white"/>
</svg>